<?xml version="1.0" standalone="no"?><!DOCTYPE svg PUBLIC "-//W3C//DTD SVG 1.1//EN" "http://www.w3.org/Graphics/SVG/1.1/DTD/svg11.dtd"><svg class="icon" width="110px" height="110.00px" viewBox="0 0 1024 1024" version="1.1" xmlns="http://www.w3.org/2000/svg"><path d="M810.666667 128l-42.666667 0 0-85.333333-85.333333 0 0 85.333333-341.333333 0 0-85.333333-85.333333 0 0 85.333333-42.666667 0c-46.933333 0-85.333333 38.4-85.333333 85.333333l0 597.333333c0 46.933333 38.4 85.333333 85.333333 85.333333l597.333333 0c46.933333 0 85.333333-38.4 85.333333-85.333333l0-597.333333C896 166.4 857.6 128 810.666667 128zM512 256c70.4 0 128 57.6 128 128 0 70.4-57.6 128-128 128s-128-57.6-128-128C384 313.6 441.6 256 512 256zM768 768l-512 0 0-42.666667c0-85.333333 170.666667-132.266667 256-132.266667s256 46.933333 256 132.266667L768 768z" fill="#009688" /></svg>