<?xml version="1.0" standalone="no"?><!DOCTYPE svg PUBLIC "-//W3C//DTD SVG 1.1//EN" "http://www.w3.org/Graphics/SVG/1.1/DTD/svg11.dtd"><svg class="icon" width="27px" height="27px" viewBox="0 0 1024 1024" version="1.1" xmlns="http://www.w3.org/2000/svg"><path d="M333.128635 559.159066c-0.629333-0.481977-1.242294-0.98749-1.867534-1.474584-0.680499-0.104377-1.356904-0.220011-2.035356-0.323365 0.445138-0.071631 0.88516-0.155543 1.326205-0.232291-69.051679-54.136991-113.453958-138.282437-113.453958-232.833883 0-40.818661 8.271384-79.712483 23.231097-115.086132-70.302159 24.609491-120.728642 91.520413-120.728642 170.224939 0 89.601714 65.35652 163.92649 151.002133 177.927365C154.157497 574.368466 64.024687 691.349761 64.024687 833.143161l84.003206 0C175.589622 714.899106 243.444033 616.302531 333.128635 559.159066L333.128635 559.159066zM553.012577 568.526411c117.417223-19.195178 207.030194-121.100102 207.030194-243.945965 0-136.53463-110.682845-247.215428-247.213381-247.215428-136.536676 0-247.220544 110.681822-247.220544 247.215428 0 122.850979 89.61297 224.750787 207.034287 243.945965-159.648047 23.313985-283.223526 183.701882-283.223526 378.107547l646.813428 0C836.233034 752.228293 712.660624 591.84142 553.012577 568.526411L553.012577 568.526411zM753.396397 557.356001c85.640496-14.000875 151.002133-88.321558 151.002133-177.927365 0-77.979002-49.502437-144.389528-118.794593-169.539324 14.779611 35.193547 22.950711 73.842799 22.950711 114.405633 0 95.727225-45.493124 180.810019-116.03269 234.857982 89.685625 57.149605 157.541059 155.74618 185.105858 273.990235l82.34545 0C959.973266 691.353854 869.839433 574.368466 753.396397 557.356001L753.396397 557.356001zM753.396397 557.356001" fill="#1AAD19" /></svg>