<?xml version="1.0" standalone="no"?><!DOCTYPE svg PUBLIC "-//W3C//DTD SVG 1.1//EN" "http://www.w3.org/Graphics/SVG/1.1/DTD/svg11.dtd"><svg class="icon" width="30px" height="30px" viewBox="0 0 1024 1024" version="1.1" xmlns="http://www.w3.org/2000/svg"><path d="M544 960C297.6 960 96 758.4 96 512 96 265.6 297.6 64 544 64c246.4 0 448 201.6 448 448C992 758.4 790.4 960 544 960zM544 96C316.8 96 128 284.8 128 512s185.6 416 416 416 416-185.6 416-416S771.2 96 544 96z" fill="#4db6ac" /><path d="M374.4 326.4c0-25.6 0-48-3.2-70.4l48 0c0 19.2-3.2 41.6-3.2 70.4l0 48c19.2 0 41.6 0 64-3.2l0 44.8c-22.4 0-44.8-3.2-64-3.2l0 80c3.2-3.2 12.8-9.6 25.6-19.2 19.2 28.8 35.2 57.6 51.2 80-16 9.6-28.8 16-38.4 25.6-16-25.6-28.8-51.2-41.6-70.4l0 166.4c0 32 0 64 3.2 96l-48 0c3.2-32 3.2-64 3.2-96l0-156.8c-16 35.2-38.4 73.6-67.2 118.4-12.8-19.2-22.4-35.2-28.8-41.6 16-16 35.2-38.4 51.2-70.4 19.2-28.8 32-67.2 41.6-108.8-22.4 0-48 0-73.6 3.2l0-44.8c25.6 0 51.2 3.2 73.6 3.2L368 326.4zM502.4 480c9.6 0 22.4-9.6 41.6-25.6 19.2-16 35.2-44.8 54.4-80l48 25.6c-12.8 6.4-22.4 19.2-35.2 32s-25.6 28.8-44.8 48l99.2-3.2c16-19.2 25.6-41.6 35.2-64l51.2 22.4c-6.4 3.2-19.2 16-32 38.4-12.8 22.4-32 44.8-57.6 73.6-25.6 28.8-51.2 51.2-73.6 70.4C566.4 640 540.8 656 512 672c-9.6-12.8-22.4-22.4-38.4-35.2 32-12.8 60.8-28.8 89.6-51.2 28.8-22.4 54.4-44.8 73.6-70.4-25.6 0-44.8 0-64 3.2-19.2 0-38.4 3.2-57.6 9.6L502.4 480zM764.8 569.6c-12.8 16-25.6 38.4-44.8 64 28.8 25.6 54.4 48 67.2 64 16 16 25.6 25.6 25.6 25.6-12.8 9.6-28.8 22.4-41.6 35.2-9.6-12.8-19.2-28.8-32-41.6-12.8-16-28.8-32-51.2-54.4-22.4 19.2-41.6 35.2-57.6 48s-38.4 25.6-57.6 35.2c-19.2 9.6-41.6 19.2-60.8 28.8-6.4-16-19.2-28.8-35.2-41.6 41.6-12.8 76.8-28.8 108.8-48 32-19.2 57.6-41.6 80-64 22.4-22.4 41.6-44.8 54.4-64 12.8-19.2 22.4-35.2 28.8-51.2 16 9.6 32 19.2 48 25.6C784 540.8 774.4 553.6 764.8 569.6zM496 374.4l0-44.8c19.2 3.2 38.4 3.2 60.8 3.2l169.6 0c22.4 0 48 0 73.6-3.2l0 44.8c-25.6 0-51.2-3.2-73.6-3.2l-188.8 0C524.8 371.2 508.8 371.2 496 374.4zM684.8 307.2c-22.4 9.6-38.4 16-44.8 22.4-9.6-25.6-22.4-44.8-35.2-60.8 22.4-9.6 38.4-16 44.8-19.2C659.2 265.6 668.8 284.8 684.8 307.2z" fill="#4db6ac" /></svg>