<?xml version="1.0" standalone="no"?><!DOCTYPE svg PUBLIC "-//W3C//DTD SVG 1.1//EN" "http://www.w3.org/Graphics/SVG/1.1/DTD/svg11.dtd"><svg class="icon" width="27px" height="27.00px" viewBox="0 0 1024 1024" version="1.1" xmlns="http://www.w3.org/2000/svg"><path d="M41.796232 269.793123C43.050108 245.655997 43.802435 221.518869 45.620556 197.507128 47.940229 167.47678 72.95507 143.339652 103.048112 141.396143 129.692993 139.640716 156.525956 139.264553 183.04545 136.380636 289.06073 124.970358 387.0512 90.112584 477.016858 32.810415 495.260764 21.212055 514.131609 17.450425 534.695188 24.346746 540.149553 26.227563 545.478531 29.048785 550.305955 32.183477 630.491374 83.341649 717.573116 116.569383 811.300404 131.992068 846.722422 137.885288 882.520605 140.581124 918.444174 141.082674 956.373947 141.646919 981.138012 166.536373 983.771153 204.591532 987.344702 255.060072 986.843151 305.403225 982.07842 355.683683 965.464553 530.22333 907.535446 688.399882 794.184986 824.06935 724.845601 907.138685 640.459694 970.772929 541.779592 1015.348249 523.034135 1023.811918 504.47676 1023.373061 485.668607 1014.72131 396.392582 974.283786 318.777609 917.733942 252.886386 845.259866 167.183909 750.842947 109.819047 640.815259 75.838986 518.311499 53.331898 437.060284 42.736639 354.053642 41.796232 269.793123L41.796232 269.793123 41.796232 269.793123ZM107.812844 204.528839C107.185905 216.440668 106.182804 228.101722 105.869335 239.888162 104.239295 298.256127 107.75015 356.310622 117.279613 413.988952 132.451522 505.960814 161.290688 593.356025 207.307966 674.795321 278.08931 800.120303 377.208268 895.289549 508.426472 956.102574 512.50157 957.920695 515.761649 957.983389 519.962137 956.165268 638.955044 901.308159 732.80772 817.486497 802.147104 706.706484 895.122066 558.184782 929.540984 394.741944 921.892335 221.142707 921.64156 215.562955 920.889235 210.045897 920.450378 204.340758 918.193399 204.21537 916.500666 204.027289 914.807933 203.964595 875.185428 203.337656 835.751002 200.077577 796.755435 193.43203 697.260312 176.379305 604.786901 141.082674 519.585974 86.915198 515.887037 84.532832 513.253896 84.344751 509.178796 86.78981 493.505337 96.381968 477.706491 106.036819 461.406091 114.751262 367.239945 165.157108 266.86711 194.309743 160.35028 201.833004 143.234862 202.961493 126.05675 203.651125 107.812844 204.528839L107.812844 204.528839 107.812844 204.528839ZM451.75124 600.315041C454.070914 597.619204 455.512871 595.613002 457.142911 593.920267 530.745478 520.255007 604.410738 446.652441 677.95061 372.987183 686.100808 364.836983 695.191416 359.946863 706.915163 361.576904 719.140461 363.395024 727.729518 370.165959 732.118087 381.638932 736.506654 393.237291 734.186983 403.83255 726.412948 413.299319 724.782908 415.242829 722.839399 417.123644 720.958583 418.941764 639.832756 500.004897 558.644237 581.318806 477.518409 662.38194 459.713358 680.124297 442.974104 680.124297 425.043665 662.193858 384.856915 622.19519 344.732858 582.133827 304.671495 542.00977 291.568483 528.844064 290.628075 510.223993 302.101048 497.497144 314.326346 484.017969 334.63915 483.453724 347.99294 496.556736 367.239947 515.490277 386.23618 534.611897 405.232412 553.670825 420.467016 568.842733 435.57623 584.077337 451.75124 600.315041L451.75124 600.315041 451.75124 600.315041Z" fill="#4db6ac" /></svg>