<?xml version="1.0" standalone="no"?><!DOCTYPE svg PUBLIC "-//W3C//DTD SVG 1.1//EN" "http://www.w3.org/Graphics/SVG/1.1/DTD/svg11.dtd"><svg class="icon" width="27px" height="27.00px" viewBox="0 0 1024 1024" version="1.1" xmlns="http://www.w3.org/2000/svg"><path d="M591.0016 776.2176h105.1904v-26.368h-105.1904v26.368z m0 52.7616h105.1904v-26.368h-105.1904v26.368z m340.9664-210.432c-32.7424-122.5472-102.912-217.2416-212.5312-281.5488-12.5952-7.3728-25.8816-13.5936-38.912-20.3008 0.1536-0.128 0.1536-0.512 0.4352-0.8192 2.1248-2.1248 4.4032-4.1472 6.5536-6.3232 22.5536-21.632 40.2688-46.6688 50.8416-76.1088 4.8128-13.44 7.5264-27.5712 11.264-41.4464 8.6016-32.128 0.2816-59.8528-24.5504-81.1008-33.5616-28.6464-71.7824-32-112.0256-15.1808-2.7904 1.2288-4.7104 2.0224-7.3728-0.6912-51.7888-49.0752-134.9632-49.6128-187.136-1.0752-2.432 2.2784-4.1728 2.7904-7.3984 1.3312-21.1968-9.8048-43.3152-11.8528-65.9968-7.1424-43.0592 8.8832-78.6176 45.6192-72.32 95.7952 5.504 43.5712 22.2976 81.2288 51.2512 113.6384 5.9136 6.7328 12.3392 13.056 18.6624 19.7888a75.264 75.264 0 0 1-4.8384 2.2784C189.7984 387.584 89.728 535.1168 78.0288 702.976c-3.2 46.4128-0.5376 92.416 11.136 137.9072 18.2528 71.7056 81.1776 125.3376 156.7232 125.2352l533.8112-0.2816c57.1392-0.128 101.1456-25.8304 133.0688-72.6272 16.256-23.8336 23.9104-50.8416 28.1856-79.232 10.3168-65.6384 8.192-130.9952-8.9856-195.4304z m-446.1568 244.7104c0 17.4848-14.1312 31.616-31.5648 31.616h-147.2768a31.5648 31.5648 0 0 1-31.5392-31.616v-147.6864c0-17.4848 14.1312-31.6416 31.5392-31.6416h147.2768c17.4336 0 31.5648 14.1824 31.5648 31.6416v147.6864z m0-263.7056c0 17.4592-14.1312 31.616-31.5648 31.616h-147.2768a31.5904 31.5904 0 0 1-31.5392-31.616v-147.6608c0-17.4848 14.1312-31.6672 31.5392-31.6672h147.2768c17.4336 0 31.5648 14.1824 31.5648 31.6672v147.6608zM748.8 863.2576c0 17.4848-14.1312 31.616-31.5648 31.616h-147.2512a31.5904 31.5904 0 0 1-31.5904-31.616v-147.6864c0-17.4848 14.1568-31.6416 31.5904-31.6416h147.2512c17.4592 0 31.5648 14.1824 31.5648 31.6416v147.6864z m0-263.7056c0 17.4592-14.1312 31.616-31.5648 31.616h-147.2512a31.616 31.616 0 0 1-31.5904-31.616v-147.6608c0-17.4848 14.1568-31.6672 31.5904-31.6672h147.2512c17.4592 0 31.5648 14.1824 31.5648 31.6672v147.6608z m-355.0464-139.7504h-26.3168v52.736h-52.5824v26.3424h52.5824v52.7872h26.3168V538.88h52.5824v-26.3424h-52.5824v-52.736z m24.0384 273.664l-37.1968 37.2736-37.1968-37.2736-18.5856 18.6624 37.1968 37.2992-37.1968 37.2736 18.5856 18.6624 37.1968-37.2736 37.1968 37.2736 18.5856-18.6624-37.1712-37.2736 37.1712-37.2992-18.5856-18.6624z m160.0512-194.5856h131.5072v-26.3424h-131.5072v26.3424z" fill="#1AAD19" /></svg>