<?xml version="1.0" standalone="no"?><!DOCTYPE svg PUBLIC "-//W3C//DTD SVG 1.1//EN" "http://www.w3.org/Graphics/SVG/1.1/DTD/svg11.dtd"><svg class="icon" width="70px" height="70px" viewBox="0 0 1024 1024" version="1.1" xmlns="http://www.w3.org/2000/svg"><path d="M404.261207 458.496435c109.327988 0 197.956537-109.465111 197.956537-218.794122 0-109.327988-88.627527-177.118953-197.956537-177.118953S206.304669 130.37535 206.304669 239.702314C206.304669 349.031325 294.933219 458.496435 404.261207 458.496435z" fill="#1AAD19" /><path d="M612.553137 521.954723c-50.212612-36.598546-109.47739-60.371996-173.569104-66.717518l-22.446221 40.223097 42.117237 129.665175L404.261207 736.889957l-54.394864-111.766526 42.066071-129.361253-22.539342-40.514739c-173.522032 17.252943-311.850517 161.955602-329.919035 344.381421L404.261207 799.62886l226.053456 0c-37.052894-38.872333-59.844993-91.459015-59.844993-149.400658C570.46967 602.212628 586.117045 557.867654 612.553137 521.954723z" fill="#1AAD19" /><path d="M796.440238 432.353009c-118.936833 0-215.697597 96.760764-215.697597 215.697597s96.760764 215.697597 215.697597 215.697597 215.697597-96.760764 215.697597-215.697597S915.37707 432.353009 796.440238 432.353009zM796.440238 841.337797c-106.579387 0-193.287191-86.707804-193.287191-193.287191s86.707804-193.287191 193.287191-193.287191 193.287191 86.707804 193.287191 193.287191S903.019625 841.337797 796.440238 841.337797z" fill="#1AAD19" /><path d="M813.903981 677.372421l-34.994002 0c-2.079358 17.573237-9.986445 29.639041-23.730471 36.190247-15.654538 8.148587-41.625026 12.788258-77.896114 13.904685 6.871501 12.781094 12.299117 23.569812 16.297175 32.352849 50.17475-4.15053 83.571371-15.896038 100.18884-35.227316 34.833343 11.18269 68.069305 23.168676 99.707886 35.94977l17.260106-31.156604c-32.753985-10.227945-67.033719-19.893072-102.82283-29.004591C810.467719 693.508937 812.467259 685.842327 813.903981 677.372421z" fill="#1AAD19" /><path d="M886.766452 708.770526 886.766452 633.748878 703.166901 633.748878 703.166901 710.207247 736.723158 710.207247 736.723158 661.075247 853.216335 661.075247 853.216335 708.770526Z" fill="#1AAD19" /><path d="M748.227166 566.394864l1.918699 24.926716 51.29834-4.311189c13.896498 29.405727 37.787628 44.10552 71.666226 44.10552 11.343349 0 20.207227-4.632507 26.604938-13.904685 3.989871-6.871501 7.104815-15.742543 9.344832-26.604938-11.18269-3.998057-19.973914-7.506974-26.364461-10.54824l25.642007-2.39249-2.152013-24.693402-41.464367 3.595898 14.378475-15.815197c-11.18269-7.192819-22.293749-14.06432-33.31578-20.615527l-15.82236 18.696828c8.7902 6.069229 17.5804 12.226462 26.371624 18.456351l-30.442336 2.632967c-3.998057-11.664667-6.711865-23.803125-8.148587-36.430724l-33.075303 2.641153c2.713808 13.896498 5.507434 26.043143 8.389064 36.430724L748.227166 566.394864zM881.973286 580.058049c-0.795109 5.434779-1.998517 10.468422-3.596921 15.10093-2.072195 7.192819-7.987928 9.111518-17.733896 5.756097-8.629541-2.560312-16.376992-8.228405-23.249517-17.019629L881.973286 580.058049z" fill="#1AAD19" /><path d="M709.396789 592.765465l0 37.146015 33.082466 0 0-67.106374c8.148587-8.7902 15.414061-17.821901 21.811772-27.085892l-27.567869-14.145162c-15.341407 21.731954-35.31532 40.348963-59.920718 55.850006 2.240017 7.506974 4.953825 18.376533 8.148587 32.594349C693.580568 604.430132 701.729156 598.675058 709.396789 592.765465z" fill="#1AAD19" /></svg>