<?xml version="1.0" standalone="no"?><!DOCTYPE svg PUBLIC "-//W3C//DTD SVG 1.1//EN" "http://www.w3.org/Graphics/SVG/1.1/DTD/svg11.dtd"><svg class="icon" width="27px" height="27.00px" viewBox="0 0 1024 1024" version="1.1" xmlns="http://www.w3.org/2000/svg"><path d="M945.287 533.546c-3.9 0-7.813-1.414-10.898-4.275l-424.811-393.57L92.091 529.178c-6.447 6.078-16.601 5.777-22.679-0.672-6.077-6.449-5.776-16.6 0.672-22.68l428.398-403.758c6.142-5.788 15.717-5.83 21.906-0.093l435.807 403.758c6.5 6.022 6.887 16.173 0.866 22.673a16 16 0 0 1-11.774 5.14z" fill="#8a8a8a" /><path d="M814.805 924.47H603.033c-8.861 0-16.044-7.183-16.044-16.044v-214.98H437.251v214.981c0 8.861-7.183 16.044-16.044 16.044H203.018c-8.859 0-16.044-7.183-16.044-16.044V548.52c0-8.859 7.184-16.042 16.044-16.042s16.043 7.183 16.043 16.042v343.864h186.103V677.402c0-8.859 7.183-16.044 16.044-16.044h181.826c8.859 0 16.042 7.184 16.042 16.044v214.982h179.687V548.52c0-8.859 7.183-16.042 16.042-16.042 8.861 0 16.044 7.183 16.044 16.042v359.907c0 8.86-7.184 16.043-16.044 16.043z" fill="#8a8a8a" /><path d="M206.675 571.593h-7.509c-6.737 0-12.25-5.513-12.25-12.25v-45.126c0-6.738 5.512-12.25 12.25-12.25h7.509c6.738 0 12.25 5.512 12.25 12.25v45.126c0 6.737-5.512 12.25-12.25 12.25z" fill="#8a8a8a" /><path d="M218.708 513.727v7.509c0 6.737-5.512 12.25-12.25 12.25H77.008c-6.737 0-12.25-5.512-12.25-12.25v-7.509c0-6.738 5.512-12.25 12.25-12.25h129.449c6.738 0 12.251 5.513 12.251 12.25zM811.123 572.029h7.509c6.737 0 12.25-5.513 12.25-12.25v-45.126c0-6.738-5.513-12.25-12.25-12.25h-7.509c-6.737 0-12.25 5.512-12.25 12.25v45.126c0 6.737 5.512 12.25 12.25 12.25z" fill="#8a8a8a" /><path d="M799.085 514.272l0.011 7.509c0.009 6.737 5.53 12.242 12.267 12.233l137.209-0.193c6.737-0.01 12.242-5.53 12.233-12.267l-0.011-7.509c-0.009-6.737-5.53-12.242-12.267-12.233l-137.209 0.193c-6.737 0.009-12.242 5.529-12.233 12.267z" fill="#8a8a8a" /></svg>