<?xml version="1.0" standalone="no"?><!DOCTYPE svg PUBLIC "-//W3C//DTD SVG 1.1//EN" "http://www.w3.org/Graphics/SVG/1.1/DTD/svg11.dtd"><svg class="icon" width="27px" height="27.00px" viewBox="0 0 1024 1024" version="1.1" xmlns="http://www.w3.org/2000/svg"><path d="M626.957707 664.819524C598.048283 625.580848 600.110245 573.96426 612.502483 549.19104c5.155417-10.30981 18.527982-34.55398 32.388664-59.353806 42.166355-43.707454 68.786643-107.756189 68.786643-179.14203 0-131.703601-90.603531-238.46616-202.350614-238.46616-111.75834 0-202.346521 106.763582-202.346521 238.46616 0 74.127278 28.690436 140.354632 73.698512 184.096878 11.617595 20.727067 22.314215 41.11849 27.477818 54.397934 14.450107 37.164435-3.613294 75.883271-14.4542 101.17633S69.467653 858.901825 63.273581 881.629455c-6.198166 22.694885 0 72.266907 0 72.266907l896.113331 0 0-72.266907C959.386912 881.629455 655.863037 704.044898 626.957707 664.819524z" fill="#1AAD19" /></svg>